<?xml version="1.0" encoding="UTF-8" standalone="no"?>
<!-- Created with Inkscape (http://www.inkscape.org/) -->

<svg
   xmlns:dc="http://purl.org/dc/elements/1.1/"
   xmlns:cc="http://creativecommons.org/ns#"
   xmlns:rdf="http://www.w3.org/1999/02/22-rdf-syntax-ns#"
   xmlns:svg="http://www.w3.org/2000/svg"
   xmlns="http://www.w3.org/2000/svg"
   xmlns:sodipodi="http://sodipodi.sourceforge.net/DTD/sodipodi-0.dtd"
   xmlns:inkscape="http://www.inkscape.org/namespaces/inkscape"
   width="16"
   height="16"
   viewBox="0 0 4.2333332 4.2333335"
   version="1.1"
   id="svg8"
   inkscape:version="0.92.5 (0.92.5+68)"
   sodipodi:docname="installed.svg"
   inkscape:export-filename="/home/harbaum/projekte/private_stuff/txt/apps/system/apt/installed.png"
   inkscape:export-xdpi="96"
   inkscape:export-ydpi="96">
  <defs
     id="defs2" />
  <sodipodi:namedview
     id="base"
     pagecolor="#ffffff"
     bordercolor="#666666"
     borderopacity="1.0"
     inkscape:pageopacity="0.0"
     inkscape:pageshadow="2"
     inkscape:zoom="31.678384"
     inkscape:cx="7.4375082"
     inkscape:cy="10.070147"
     inkscape:document-units="mm"
     inkscape:current-layer="layer1"
     showgrid="true"
     units="px"
     fit-margin-top="-0.2"
     inkscape:window-width="1124"
     inkscape:window-height="864"
     inkscape:window-x="1375"
     inkscape:window-y="56"
     inkscape:window-maximized="0">
    <inkscape:grid
       type="xygrid"
       id="grid817" />
  </sodipodi:namedview>
  <metadata
     id="metadata5">
    <rdf:RDF>
      <cc:Work
         rdf:about="">
        <dc:format>image/svg+xml</dc:format>
        <dc:type
           rdf:resource="http://purl.org/dc/dcmitype/StillImage" />
        <dc:title />
      </cc:Work>
    </rdf:RDF>
  </metadata>
  <g
     inkscape:label="Layer 1"
     inkscape:groupmode="layer"
     id="layer1"
     transform="translate(0,-292.76665)">
    <circle
       style="fill:#ffffff;fill-opacity:1;stroke:none;stroke-width:0.26458332;stroke-miterlimit:4;stroke-dasharray:none;stroke-opacity:1"
       id="path816"
       cx="2.1355653"
       cy="294.76758"
       r="1.8520833" />
    <path
       style="fill:#f29900;fill-opacity:1;stroke:none;stroke-width:1.05151558;stroke-miterlimit:4;stroke-dasharray:none;stroke-opacity:1"
       d="M 8.0078125,-0.01367188 C 3.5854985,-0.01420023 1.7515418e-4,3.5676252 0,7.9863281 1.7519564e-4,12.405031 3.5854986,15.986856 8.0078125,15.986328 12.429364,15.985779 16.013497,12.404269 16.013672,7.9863281 16.013497,3.5683873 12.429364,-0.01312254 8.0078125,-0.01367188 Z M 7.9733404,1.0266597 c 0.4794087,0 1.1710432,-0.0319453 1.5048085,0.2812996 0.3398341,0.3076325 0.5097656,0.7506926 0.5097656,1.2037595 0,0.4418907 -0.1699315,0.8511591 -0.5097656,1.1643797 -0.3337654,0.3076568 -1.0569671,0.3346684 -1.5363758,0.3346685 -0.4915454,0 -1.0956635,0.00456 -1.4354974,-0.3031013 C 6.1664419,3.4000332 6.0596446,2.9907648 6.0596446,2.5432861 c 0,-0.4530669 0.1383645,-0.8329925 0.4781983,-1.140625 C 6.8776768,1.0894162 7.4817949,1.0266597 7.9733404,1.0266597 Z M 5.0000001,5.0000001 10,5.0000001 V 13 h 1 v 1 l -5.9999999,0 v -1 h 1 V 6.0000001 h -1 z"
       transform="matrix(0.26458333,0,0,0.26458333,0,292.76665)"
       id="path815"
       inkscape:connector-curvature="0"
       sodipodi:nodetypes="cccccscscscscsccccccccccc" />
    <g
       aria-label="i"
       transform="scale(1.0415943,0.96006673)"
       style="font-style:normal;font-variant:normal;font-weight:bold;font-stretch:normal;font-size:4.73547745px;line-height:1.25;font-family:'Bitstream Vera Serif';-inkscape-font-specification:'Bitstream Vera Serif Bold';letter-spacing:0px;word-spacing:0px;fill:#f41c9d;fill-opacity:1;stroke:none;stroke-width:0.11838693"
       id="text821" />
  </g>
</svg>
