<?xml version="1.0" encoding="UTF-8" standalone="no"?>
<!-- Created with Inkscape (http://www.inkscape.org/) -->

<svg
   xmlns:dc="http://purl.org/dc/elements/1.1/"
   xmlns:cc="http://creativecommons.org/ns#"
   xmlns:rdf="http://www.w3.org/1999/02/22-rdf-syntax-ns#"
   xmlns:svg="http://www.w3.org/2000/svg"
   xmlns="http://www.w3.org/2000/svg"
   xmlns:sodipodi="http://sodipodi.sourceforge.net/DTD/sodipodi-0.dtd"
   xmlns:inkscape="http://www.inkscape.org/namespaces/inkscape"
   width="16"
   height="16"
   viewBox="0 0 4.2333332 4.2333335"
   version="1.1"
   id="svg8"
   inkscape:version="0.92.4 (unknown)"
   sodipodi:docname="installed.svg"
   inkscape:export-filename="/home/harbaum/projekte/private_stuff/txt/apps/system/apt/installed.png"
   inkscape:export-xdpi="96"
   inkscape:export-ydpi="96">
  <defs
     id="defs2" />
  <sodipodi:namedview
     id="base"
     pagecolor="#ffffff"
     bordercolor="#666666"
     borderopacity="1.0"
     inkscape:pageopacity="0.0"
     inkscape:pageshadow="2"
     inkscape:zoom="22.4"
     inkscape:cx="10.609075"
     inkscape:cy="5.2319827"
     inkscape:document-units="mm"
     inkscape:current-layer="layer1"
     showgrid="true"
     units="px"
     fit-margin-top="-0.2"
     inkscape:window-width="1124"
     inkscape:window-height="864"
     inkscape:window-x="1375"
     inkscape:window-y="56"
     inkscape:window-maximized="0">
    <inkscape:grid
       type="xygrid"
       id="grid817" />
  </sodipodi:namedview>
  <metadata
     id="metadata5">
    <rdf:RDF>
      <cc:Work
         rdf:about="">
        <dc:format>image/svg+xml</dc:format>
        <dc:type
           rdf:resource="http://purl.org/dc/dcmitype/StillImage" />
        <dc:title />
      </cc:Work>
    </rdf:RDF>
  </metadata>
  <g
     inkscape:label="Layer 1"
     inkscape:groupmode="layer"
     id="layer1"
     transform="translate(0,-292.76665)">
    <circle
       style="fill:#ffffff;fill-opacity:1;stroke:none;stroke-width:0.26458332;stroke-miterlimit:4;stroke-dasharray:none;stroke-opacity:1"
       id="path816"
       cx="2.1001301"
       cy="294.83844"
       r="1.8520833" />
    <path
       style="fill:#ffbb19;fill-opacity:1;stroke:none;stroke-width:1.05151558;stroke-miterlimit:4;stroke-dasharray:none;stroke-opacity:1"
       d="M 8.0078125 -0.013671875 A 8.0068551 8.0003169 0 0 0 0 7.9863281 A 8.0068551 8.0003169 0 0 0 8.0078125 15.986328 A 8.0068551 8.0003169 0 0 0 16.013672 7.9863281 A 8.0068551 8.0003169 0 0 0 8.0078125 -0.013671875 z M 8.0996094 0.90039062 C 8.5790181 0.90039062 8.9865472 1.0578489 9.3203125 1.3710938 C 9.6601466 1.6787263 9.8300781 2.0586519 9.8300781 2.5117188 C 9.8300781 2.9536095 9.6601466 3.3313106 9.3203125 3.6445312 C 8.9865472 3.952188 8.5790181 4.1054687 8.0996094 4.1054688 C 7.608064 4.1054688 7.1933495 3.952188 6.8535156 3.6445312 C 6.5136818 3.3368987 6.34375 2.9591975 6.34375 2.5117188 C 6.34375 2.0586519 6.5136818 1.6787263 6.8535156 1.3710938 C 7.1933495 1.0578489 7.608064 0.90039062 8.0996094 0.90039062 z M 5.2695312 5.0371094 L 9.8652344 5.0371094 L 9.8652344 12.941406 L 11.25 12.941406 L 11.25 13.957031 L 5.2695312 13.957031 L 5.2695312 12.941406 L 6.6425781 12.941406 L 6.6425781 6.0527344 L 5.2695312 6.0527344 L 5.2695312 5.0371094 z "
       transform="matrix(0.26458333,0,0,0.26458333,0,292.76665)"
       id="path815" />
    <g
       aria-label="i"
       transform="scale(1.0415943,0.96006673)"
       style="font-style:normal;font-variant:normal;font-weight:bold;font-stretch:normal;font-size:4.73547745px;line-height:1.25;font-family:'Bitstream Vera Serif';-inkscape-font-specification:'Bitstream Vera Serif Bold';letter-spacing:0px;word-spacing:0px;fill:#f41c9d;fill-opacity:1;stroke:none;stroke-width:0.11838693"
       id="text821" />
  </g>
</svg>
