<?xml version="1.0" encoding="UTF-8" standalone="no"?>
<!-- Created with Inkscape (http://www.inkscape.org/) -->

<svg
   xmlns:dc="http://purl.org/dc/elements/1.1/"
   xmlns:cc="http://creativecommons.org/ns#"
   xmlns:rdf="http://www.w3.org/1999/02/22-rdf-syntax-ns#"
   xmlns:svg="http://www.w3.org/2000/svg"
   xmlns="http://www.w3.org/2000/svg"
   xmlns:xlink="http://www.w3.org/1999/xlink"
   xmlns:sodipodi="http://sodipodi.sourceforge.net/DTD/sodipodi-0.dtd"
   xmlns:inkscape="http://www.inkscape.org/namespaces/inkscape"
   width="64"
   height="64"
   viewBox="0 0 64 64.000002"
   id="svg2"
   version="1.1"
   inkscape:version="0.92.4 (unknown)"
   sodipodi:docname="icon.svg"
   inkscape:export-filename="/home/harbaum/projekte/private_stuff/txt/apps/about/icon.png"
   inkscape:export-xdpi="90"
   inkscape:export-ydpi="90">
  <defs
     id="defs4">
    <linearGradient
       id="linearGradient4159-2"
       inkscape:collect="always">
      <stop
         style="stop-color:#ababff;stop-opacity:1"
         offset="0"
         id="stop4219" />
      <stop
         id="stop4189"
         offset="1"
         style="stop-color:#0000b0;stop-opacity:1" />
    </linearGradient>
    <radialGradient
       inkscape:collect="always"
       xlink:href="#linearGradient4159-2"
       id="radialGradient4165"
       cx="9"
       cy="1028.1622"
       fx="9"
       fy="1028.1622"
       r="13"
       gradientTransform="matrix(0.60007064,0,0,0.60390713,-0.07462054,404.55765)"
       gradientUnits="userSpaceOnUse"
       spreadMethod="pad" />
    <inkscape:path-effect
       is_visible="true"
       id="path-effect4411"
       effect="spiro" />
    <inkscape:path-effect
       is_visible="true"
       id="path-effect4407"
       effect="spiro" />
    <inkscape:path-effect
       is_visible="true"
       id="path-effect4375"
       effect="spiro" />
    <inkscape:path-effect
       is_visible="true"
       id="path-effect4363"
       effect="spiro" />
    <inkscape:path-effect
       is_visible="true"
       id="path-effect4355"
       effect="spiro" />
    <inkscape:path-effect
       is_visible="true"
       id="path-effect4351"
       effect="spiro" />
    <inkscape:path-effect
       is_visible="true"
       id="path-effect4347"
       effect="spiro" />
    <inkscape:path-effect
       is_visible="true"
       id="path-effect4339"
       effect="spiro" />
    <inkscape:path-effect
       is_visible="true"
       id="path-effect4333"
       effect="spiro" />
    <inkscape:path-effect
       is_visible="true"
       id="path-effect4329"
       effect="spiro" />
    <inkscape:path-effect
       is_visible="true"
       id="path-effect4325"
       effect="spiro" />
    <inkscape:path-effect
       is_visible="true"
       id="path-effect4321"
       effect="spiro" />
    <inkscape:perspective
       id="perspective3375"
       inkscape:persp3d-origin="224.42849 : 1263.8555 : 1"
       inkscape:vp_z="-503.74208 : 776.95086 : 1"
       inkscape:vp_y="1676.1312 : -4.1053374e-13 : 0"
       inkscape:vp_x="1074.0217 : 885.18236 : 1"
       sodipodi:type="inkscape:persp3d" />
    <inkscape:path-effect
       is_visible="true"
       id="path-effect3373"
       effect="spiro" />
    <inkscape:path-effect
       is_visible="true"
       id="path-effect3369"
       effect="spiro" />
  </defs>
  <sodipodi:namedview
     id="base"
     pagecolor="#ffffff"
     bordercolor="#666666"
     borderopacity="1.0"
     inkscape:pageopacity="0.0"
     inkscape:pageshadow="2"
     inkscape:zoom="3.959798"
     inkscape:cx="13.879164"
     inkscape:cy="7.0038198"
     inkscape:document-units="px"
     inkscape:current-layer="layer1"
     showgrid="true"
     units="px"
     inkscape:window-width="1119"
     inkscape:window-height="857"
     inkscape:window-x="1331"
     inkscape:window-y="0"
     inkscape:window-maximized="0"
     fit-margin-top="0"
     fit-margin-left="0"
     fit-margin-right="0"
     fit-margin-bottom="0">
    <inkscape:grid
       type="xygrid"
       id="grid3336"
       empspacing="5"
       visible="true"
       enabled="true"
       snapvisiblegridlinesonly="true"
       originx="-1.3173673e-09"
       originy="-6.654646e-05"
       spacingx="1"
       spacingy="1" />
  </sodipodi:namedview>
  <metadata
     id="metadata7">
    <rdf:RDF>
      <cc:Work
         rdf:about="">
        <dc:format>image/svg+xml</dc:format>
        <dc:type
           rdf:resource="http://purl.org/dc/dcmitype/StillImage" />
        <dc:title />
      </cc:Work>
    </rdf:RDF>
  </metadata>
  <g
     inkscape:label="Layer 1"
     inkscape:groupmode="layer"
     id="layer1"
     transform="translate(0,-988.36213)">
    <ellipse
       style="fill:url(#radialGradient4165);fill-opacity:1;fill-rule:nonzero;stroke:#ffffff;stroke-width:0.61390746;stroke-miterlimit:4;stroke-opacity:1;stroke-dasharray:none"
       id="path3357"
       cx="15.899113"
       cy="1036.4242"
       rx="15.34031"
       ry="15.376954"
       sodipodi:cx="15.899113"
       sodipodi:cy="1036.4242"
       sodipodi:rx="15.34031"
       sodipodi:ry="15.376954"
       transform="matrix(2.0451339,0,0,2.0402602,-0.51581362,-1094.2129)" />
    <g
       id="g1103"
       transform="translate(-462,730.3622)" />
    <g
       id="g1105"
       transform="translate(-462,730.3622)" />
    <g
       id="g1107"
       transform="translate(-462,730.3622)" />
    <g
       id="g1109"
       transform="translate(-462,730.3622)" />
    <g
       id="g1111"
       transform="translate(-462,730.3622)" />
    <g
       id="g1113"
       transform="translate(-462,730.3622)" />
    <g
       id="g1115"
       transform="translate(-462,730.3622)" />
    <g
       id="g1117"
       transform="translate(-462,730.3622)" />
    <g
       id="g1119"
       transform="translate(-462,730.3622)" />
    <g
       id="g1121"
       transform="translate(-462,730.3622)" />
    <g
       id="g1123"
       transform="translate(-462,730.3622)" />
    <g
       id="g1125"
       transform="translate(-462,730.3622)" />
    <g
       id="g1127"
       transform="translate(-462,730.3622)" />
    <g
       id="g1129"
       transform="translate(-462,730.3622)" />
    <g
       id="g1131"
       transform="translate(-462,730.3622)" />
    <g
       id="g1045"
       transform="matrix(0.04464029,0,0,0.04464029,11.097148,998.77891)"
       style="fill:#ffffff;fill-opacity:1;stroke:#000000;stroke-width:23.40934563;stroke-miterlimit:4;stroke-dasharray:none;stroke-opacity:1">
      <g
         id="g989"
         style="fill:#ffffff;fill-opacity:1;stroke:#000000;stroke-width:23.40934563;stroke-miterlimit:4;stroke-dasharray:none;stroke-opacity:1">
	<path
   id="path987"
   d="m 900.199,0 h -46.514 c -11.046,0 -20,8.954 -20,20 v 24.89 c 0,11.045 -8.954,20 -20,20 h -43.37 c -11.046,0 -20,-8.955 -20,-20 V 20 c 0,-11.046 -8.953,-20 -20,-20 H 208.121 c -11.046,0 -20,8.954 -20,20 v 24.89 c 0,11.045 -8.954,20 -20,20 h -43.37 c -11.046,0 -20,-8.955 -20,-20 V 20 c 0,-11.046 -8.954,-20 -20,-20 h -44.95 c -11.046,0 -20,8.954 -20,20 v 900 c 0,11.046 8.954,20 20,20 h 44.95 c 11.046,0 20,-8.954 20,-20 v -18.285 c 0,-11.046 8.954,-20 20,-20 h 43.37 c 11.046,0 20,8.954 20,20 V 920 c 0,11.046 8.954,20 20,20 h 522.194 c 11.047,0 20,-8.954 20,-20 v -18.285 c 0,-11.046 8.954,-20 20,-20 h 43.37 c 11.046,0 20,8.954 20,20 V 920 c 0,11.046 8.954,20 20,20 h 46.514 c 11.046,0 20,-8.954 20,-20 V 20 c 0,-11.045 -8.954,-20 -20,-20 z M 188.121,765.369 c 0,11.046 -8.954,20 -20,20 h -43.37 c -11.046,0 -20,-8.954 -20,-20 v -43.37 c 0,-11.045 8.954,-20 20,-20 h 43.37 c 11.046,0 20,8.955 20,20 z m 0,-179.716 c 0,11.045 -8.954,20 -20,20 h -43.37 c -11.046,0 -20,-8.955 -20,-20 v -43.371 c 0,-11.045 8.954,-20 20,-20 h 43.37 c 11.046,0 20,8.955 20,20 z m 0,-179.717 c 0,11.047 -8.954,20 -20,20 h -43.37 c -11.046,0 -20,-8.953 -20,-20 v -43.37 c 0,-11.046 8.954,-20 20,-20 h 43.37 c 11.046,0 20,8.954 20,20 z m 0,-179.716 c 0,11.046 -8.954,20 -20,20 h -43.37 c -11.046,0 -20,-8.954 -20,-20 v -43.37 c 0,-11.045 8.954,-20 20,-20 h 43.37 c 11.046,0 20,8.955 20,20 z m 475.715,608.047 c 0,11.047 -8.954,20 -20,20 H 296.164 c -11.046,0 -20,-8.953 -20,-20 V 673.545 c 0,-11.046 8.954,-20 20,-20 h 347.672 c 11.046,0 20,8.954 20,20 z m 0,-283.906 c 0,11.046 -8.954,20 -20,20 H 296.164 c -11.046,0 -20,-8.954 -20,-20 V 389.639 c 0,-11.045 8.954,-20 20,-20 h 347.672 c 11.046,0 20,8.955 20,20 z m 0,-283.907 c 0,11.046 -8.954,20 -20,20 H 296.164 c -11.046,0 -20,-8.954 -20,-20 V 105.732 c 0,-11.045 8.954,-20 20,-20 h 347.672 c 11.046,0 20,8.955 20,20 z m 169.85,498.915 c 0,11.046 -8.954,20 -20,20 h -43.37 c -11.046,0 -20,-8.954 -20,-20 v -43.37 c 0,-11.045 8.954,-20 20,-20 h 43.37 c 11.046,0 20,8.955 20,20 z m 0,-179.716 c 0,11.045 -8.954,20 -20,20 h -43.37 c -11.046,0 -20,-8.955 -20,-20 v -43.371 c 0,-11.045 8.954,-20 20,-20 h 43.37 c 11.046,0 20,8.955 20,20 z m 0,-179.717 c 0,11.047 -8.954,20 -20,20 h -43.37 c -11.046,0 -20,-8.953 -20,-20 v -43.37 c 0,-11.046 8.954,-20 20,-20 h 43.37 c 11.046,0 20,8.954 20,20 z m 0,-179.716 c 0,11.046 -8.954,20 -20,20 h -43.37 c -11.046,0 -20,-8.954 -20,-20 v -43.37 c 0,-11.045 8.954,-20 20,-20 h 43.37 c 11.046,0 20,8.955 20,20 z"
   inkscape:connector-curvature="0"
   style="fill:#ffffff;fill-opacity:1;stroke:#000000;stroke-width:23.40934563;stroke-miterlimit:4;stroke-dasharray:none;stroke-opacity:1" />

</g>
      <g
         id="g991"
         style="fill:#ffffff;fill-opacity:1;stroke:#000000;stroke-width:23.40934563;stroke-miterlimit:4;stroke-dasharray:none;stroke-opacity:1">
</g>
      <g
         id="g993"
         style="fill:#ffffff;fill-opacity:1;stroke:#000000;stroke-width:23.40934563;stroke-miterlimit:4;stroke-dasharray:none;stroke-opacity:1">
</g>
      <g
         id="g995"
         style="fill:#ffffff;fill-opacity:1;stroke:#000000;stroke-width:23.40934563;stroke-miterlimit:4;stroke-dasharray:none;stroke-opacity:1">
</g>
      <g
         id="g997"
         style="fill:#ffffff;fill-opacity:1;stroke:#000000;stroke-width:23.40934563;stroke-miterlimit:4;stroke-dasharray:none;stroke-opacity:1">
</g>
      <g
         id="g999"
         style="fill:#ffffff;fill-opacity:1;stroke:#000000;stroke-width:23.40934563;stroke-miterlimit:4;stroke-dasharray:none;stroke-opacity:1">
</g>
      <g
         id="g1001"
         style="fill:#ffffff;fill-opacity:1;stroke:#000000;stroke-width:23.40934563;stroke-miterlimit:4;stroke-dasharray:none;stroke-opacity:1">
</g>
      <g
         id="g1003"
         style="fill:#ffffff;fill-opacity:1;stroke:#000000;stroke-width:23.40934563;stroke-miterlimit:4;stroke-dasharray:none;stroke-opacity:1">
</g>
      <g
         id="g1005"
         style="fill:#ffffff;fill-opacity:1;stroke:#000000;stroke-width:23.40934563;stroke-miterlimit:4;stroke-dasharray:none;stroke-opacity:1">
</g>
      <g
         id="g1007"
         style="fill:#ffffff;fill-opacity:1;stroke:#000000;stroke-width:23.40934563;stroke-miterlimit:4;stroke-dasharray:none;stroke-opacity:1">
</g>
      <g
         id="g1009"
         style="fill:#ffffff;fill-opacity:1;stroke:#000000;stroke-width:23.40934563;stroke-miterlimit:4;stroke-dasharray:none;stroke-opacity:1">
</g>
      <g
         id="g1011"
         style="fill:#ffffff;fill-opacity:1;stroke:#000000;stroke-width:23.40934563;stroke-miterlimit:4;stroke-dasharray:none;stroke-opacity:1">
</g>
      <g
         id="g1013"
         style="fill:#ffffff;fill-opacity:1;stroke:#000000;stroke-width:23.40934563;stroke-miterlimit:4;stroke-dasharray:none;stroke-opacity:1">
</g>
      <g
         id="g1015"
         style="fill:#ffffff;fill-opacity:1;stroke:#000000;stroke-width:23.40934563;stroke-miterlimit:4;stroke-dasharray:none;stroke-opacity:1">
</g>
      <g
         id="g1017"
         style="fill:#ffffff;fill-opacity:1;stroke:#000000;stroke-width:23.40934563;stroke-miterlimit:4;stroke-dasharray:none;stroke-opacity:1">
</g>
      <g
         id="g1019"
         style="fill:#ffffff;fill-opacity:1;stroke:#000000;stroke-width:23.40934563;stroke-miterlimit:4;stroke-dasharray:none;stroke-opacity:1">
</g>
    </g>
  </g>
</svg>
